<svg width="30" height="20" viewBox="0 0 30 20" fill="none" xmlns="http://www.w3.org/2000/svg">
<path d="M12.5039 4.65649V6.44999C12.5039 7.37639 11.3699 7.84029 10.7067 7.18519L9.42535 5.91959L7.09232 3.61517C6.68075 3.20865 6.01332 3.20915 5.60238 3.61628L4.59964 4.60969L3.59388 5.60009C3.1817 6.00599 3.1812 6.66529 3.59276 7.07179L5.92579 9.37619L7.20718 10.6419C7.87038 11.2969 7.40067 12.417 6.46277 12.417H4.647H1.34768C0.766256 12.417 0.294922 12.8825 0.294922 13.4568V14.86V16.2616C0.294922 16.8345 0.764017 17.2994 1.344 17.3015L4.81014 17.3134L9.14123 17.3284C9.25963 17.3288 9.3771 17.3489 9.48872 17.3879L9.66216 17.4486C10.1358 17.6149 10.7357 17.9424 11.0515 18.2023C11.3883 18.483 11.825 19.0079 12.0145 19.3614C12.105 19.5338 12.2853 19.6421 12.4819 19.6421H14.9773H17.4726C17.6693 19.6421 17.8495 19.5338 17.9401 19.3614C18.1295 19.0079 18.5663 18.483 18.9031 18.2023C19.2188 17.9424 19.8188 17.6149 20.2924 17.4486L20.4658 17.388C20.5774 17.3489 20.6949 17.3288 20.8133 17.3284L25.1497 17.3134L28.6106 17.3015C29.1905 17.2994 29.6596 16.8345 29.6596 16.2616V14.86V13.4568C29.6596 12.8825 29.1883 12.417 28.6069 12.417H25.3075H23.4918C22.5539 12.417 22.0842 11.2969 22.7474 10.6419L24.0288 9.37619L26.3618 7.07179C26.7734 6.66529 26.7729 6.00599 26.3607 5.60009L25.3549 4.60969L24.3522 3.61628C23.9412 3.20915 23.2738 3.20866 22.8622 3.61517L20.5292 5.91959L19.2478 7.18519C18.5846 7.84029 17.4506 7.37639 17.4506 6.44999V4.65649V1.39763C17.4506 0.823338 16.9793 0.357788 16.3979 0.357788H14.9773H13.5567C12.9752 0.357788 12.5039 0.823338 12.5039 1.39763V4.65649Z" fill="#01383D"/>
</svg>
